<svg width="932" height="1001" viewBox="0 0 932 1001" fill="none" xmlns="http://www.w3.org/2000/svg">
<g filter="url(#filter0_d_3_12)">
<path fill-rule="evenodd" clip-rule="evenodd" d="M432.376 10.9344C269.508 23.1807 125.398 121.67 54.3819 269.269C29.8703 320.214 15.2184 374.944 10.8904 431.734C9.18076 454.165 10.2425 501.693 12.9009 521.714C22.7598 595.966 47.1805 660.801 88.0455 721.218C98.2283 736.273 114.257 757.055 124.105 767.969L128.443 772.776L139.756 761.389L151.07 750L144.144 741.973C103.364 694.703 72.271 635.935 56.0115 575.394C49.6219 551.604 44.93 523.879 42.8664 497.719C41.2198 476.853 42.2475 434.534 44.905 413.737C68.7668 227.016 211.883 78.2697 397.384 47.3934C421.309 43.4113 435.165 42.4015 465.869 42.4015C498.659 42.4015 512.006 43.4913 539.853 48.4402C637.483 65.7924 727.361 118.127 791.288 194.847C845.134 259.47 876.682 333.404 887.461 420.236C890.176 442.104 889.895 493.488 886.936 516.215C875.832 601.521 841.914 678.611 787.94 741.218L779.583 750.913L790.422 761.786C796.384 767.766 801.742 772.659 802.329 772.659C804.561 772.659 829.031 742.456 842.019 723.67C865.353 689.919 886.982 645.842 900.213 605.08C923.781 532.469 928.196 451.068 912.704 374.78C882.245 224.779 775.748 97.9734 632.833 41.5377C590.294 24.7393 543.999 14.2536 497.362 10.8544C481.292 9.68264 448.485 9.72263 432.376 10.9344ZM537.557 264.465C537.292 264.908 525.956 291.364 512.365 323.257C485.661 385.925 481.19 395.449 476.706 399.223C467.645 406.847 452.201 403.744 440.656 391.978C433.693 384.885 401.514 340.695 402.596 339.714C403.029 339.321 405.857 338.208 408.882 337.24C421.922 333.068 430.553 324.927 434.013 313.534C437.758 301.205 435.194 290.295 426.323 280.811C415.685 269.438 407.663 267.851 360.569 267.804C327.94 267.771 325.774 267.879 326.086 269.519C326.345 270.879 327.752 271.386 332.408 271.792C339.837 272.443 342.665 273.971 344.481 278.315C346.425 282.97 346.565 392.881 344.631 396.645C342.462 400.864 338.384 403.077 331.911 403.545C326.848 403.912 325.9 404.277 325.9 405.859C325.9 407.657 327.205 407.739 355.893 407.739C385.22 407.739 385.887 407.695 385.887 405.739C385.887 404.03 385.22 403.74 381.289 403.74C378.76 403.74 375.105 402.987 373.167 402.068C367.149 399.212 366.605 396.591 366.098 367.997L365.651 342.753H373.225H380.8L404.405 375.246L428.011 407.739H468.935C507.873 407.739 509.859 407.65 509.859 405.916C509.859 404.468 508.571 403.855 503.611 402.941C491.715 400.749 491.175 396.532 500.121 375.746L506.36 361.249L533.07 360.983L559.781 360.716L561.202 363.482C564.888 370.653 571.95 389.225 572.491 393.171C573.014 396.987 572.759 397.919 570.597 400.08C569.014 401.663 566.402 402.834 563.474 403.273C559.853 403.816 558.849 404.377 558.849 405.853C558.849 407.655 560.066 407.739 586.343 407.739C612.749 407.739 613.837 407.663 613.837 405.827C613.837 404.389 612.886 403.755 610.004 403.268C604.27 402.299 600.208 399.361 596.502 393.504C592.794 387.643 592.435 386.815 562.542 315.262C542.399 267.046 539.519 261.191 537.557 264.465ZM686.318 264.849C677.595 265.869 666.403 269.599 659.018 273.947C649.442 279.586 638.96 290.903 633.512 301.488C626.554 315.006 624.542 323.442 624.51 339.254C624.477 354.89 626.137 362.671 632.081 374.746C635.381 381.451 638.063 385.059 644.796 391.848C658.205 405.37 671.682 410.738 692.225 410.738C714.777 410.738 731.955 401.743 744.75 383.234C749.61 376.204 749.919 375.43 748.454 373.964C747.575 373.085 746.714 372.563 746.542 372.806C742.399 378.62 733.849 388.398 730.524 391.121C712.201 406.135 682.301 404.83 664.928 388.259C658.027 381.677 653.595 373.86 650.643 363.062C648.867 356.568 648.504 352.468 648.492 338.754C648.477 320.114 650.376 309.686 655.891 298.132C672.253 263.846 719.607 262.755 736.985 296.263C738.98 300.112 741.179 305.174 741.87 307.511C742.779 310.589 743.651 311.76 745.035 311.76C746.801 311.76 746.902 311.173 746.371 304.011C746.055 299.75 745.313 289.29 744.722 280.766C744.131 272.243 743.252 264.862 742.771 264.362C741.734 263.29 738.809 265.419 738.809 267.245C738.809 269.324 734.03 273.768 731.795 273.768C730.633 273.768 727.337 272.695 724.47 271.384C710.886 265.17 699.807 263.272 686.318 264.849ZM185.116 269.519C185.376 270.885 186.773 271.379 191.486 271.768C198.944 272.386 202.505 274.6 203.941 279.513C204.698 282.1 204.944 300.856 204.733 339.9C204.435 394.893 204.368 396.597 202.427 398.775C199.65 401.887 194.812 403.74 189.461 403.74C185.538 403.74 184.93 404.019 184.93 405.82V407.901L229.171 407.472C277.053 407.006 280.15 406.692 291.014 401.186C302.427 395.402 310.11 383.681 310.75 371.08C311.18 362.596 309.934 358.064 305.254 351.097C301.2 345.06 295.831 341.237 287.14 338.198L280.874 336.006L286.282 333.36C297.622 327.812 304.281 317.247 304.341 304.713C304.427 286.803 291.676 273.776 269.704 269.329C263.512 268.076 254.41 267.769 223.391 267.769C187.162 267.769 184.804 267.877 185.116 269.519ZM263.382 277.77C283.228 285.431 289.223 309.038 274.86 322.966C267.823 329.788 262.359 331.226 243.418 331.242C235.169 331.249 227.633 330.933 226.671 330.537C225.069 329.879 224.922 327.642 224.922 303.851C224.922 285.196 225.249 277.683 226.084 277.166C228.893 275.431 234.222 274.879 245.417 275.163C255.043 275.407 258.594 275.922 263.382 277.77ZM396.452 278.504C401.259 281.006 407.514 287.641 409.461 292.301C411.631 297.493 412.269 305.976 410.914 311.621C407.364 326.422 394.596 334.779 375.024 335.109L366.391 335.255V306.261V277.267L369.89 276.595C371.815 276.226 377.663 276.027 382.887 276.155C390.297 276.335 393.279 276.851 396.452 278.504ZM545.724 325.757L556.768 352.251L544.754 352.532C538.146 352.687 527.659 352.687 521.449 352.532L510.157 352.251L521.756 325.078C528.135 310.133 533.652 298.211 534.017 298.584C534.382 298.957 539.65 311.185 545.724 325.757ZM259.115 340.868C276.303 344.484 286.888 355.871 286.888 370.747C286.888 382.442 281.076 390.985 269.412 396.437C263.585 399.161 262.941 399.24 246.917 399.197C236.543 399.17 229.4 398.715 227.671 397.972L224.922 396.791V368.938C224.922 353.62 225.222 340.786 225.589 340.42C226.693 339.315 253.427 339.672 259.115 340.868ZM595.037 466.564C585.376 470.009 579.844 477.531 579.844 487.221C579.844 498.166 584.059 502.751 605.241 514.847C620.136 523.354 623.835 527.221 623.835 534.284C623.835 544.322 611.509 550.591 599.739 546.538C591.061 543.55 586.214 538.045 583.791 528.422C583.115 525.735 582.094 523.796 581.465 524.006C579.793 524.563 579.917 551.898 581.594 552.457C582.282 552.686 582.844 552.216 582.844 551.413C582.844 550.61 583.499 549.409 584.3 548.744C585.458 547.782 587.558 548.065 594.548 550.122C608.426 554.204 617.511 553.369 625.954 547.234C637.436 538.892 637.974 521.943 627.054 512.66C624.825 510.766 617.095 505.874 609.876 501.788C594.399 493.031 589.842 488.69 589.842 482.704C589.842 477.293 594.747 471.763 600.4 470.803C612.903 468.68 624.415 477.205 626.514 490.139C626.852 492.22 627.669 493.72 628.465 493.72C629.56 493.72 629.833 490.827 629.833 479.223C629.833 471.25 629.512 464.726 629.121 464.726C628.729 464.726 627.417 465.964 626.205 467.476L624.003 470.225L617.49 467.911C608.314 464.649 601.542 464.243 595.037 466.564ZM95.9498 468.226C95.9498 469.216 96.9406 469.725 98.8672 469.725C107.198 469.725 107.363 470.353 107.947 504.218L108.447 533.211L111.53 538.71C117.34 549.07 127.618 553.442 143.795 552.435C157.575 551.577 167.616 544.757 171.027 533.936C171.738 531.683 172.445 519.02 172.817 501.877C173.431 473.647 173.442 473.536 175.793 471.634C177.524 470.235 179.738 469.725 184.091 469.725C190.675 469.725 194.056 471.103 198.217 475.481L201.007 478.416L200.717 510.959C200.39 547.606 200.495 547.114 192.76 548.351C184.688 549.642 189.512 550.708 203.426 550.708C217.34 550.708 222.164 549.642 214.093 548.351C206.459 547.13 206.468 547.167 206.095 514.502C205.877 495.413 206.104 485.714 206.76 486.119C207.308 486.458 218.656 500.117 231.979 516.472C258.686 549.259 261.839 552.871 263.071 552.109C263.534 551.823 263.913 534.156 263.913 512.848C263.913 481.814 264.183 473.737 265.269 472.252C266.06 471.172 268.424 470.153 270.937 469.811C273.308 469.489 275.435 468.663 275.663 467.976C275.982 467.013 272.616 466.726 260.997 466.726C248.26 466.726 245.917 466.959 245.917 468.226C245.917 469.304 247.02 469.725 249.845 469.725C254.058 469.725 256.575 471.487 257.445 475.044C257.738 476.243 257.85 488.838 257.696 503.035L257.415 528.845L232.102 497.786L206.79 466.726H180.863C158.484 466.726 154.937 466.931 154.937 468.226C154.937 469.296 156.027 469.725 158.745 469.725C160.84 469.725 163.426 470.364 164.494 471.145C166.338 472.495 166.434 474.016 166.434 501.888V531.212L163.935 535.67C160.297 542.159 153.862 545.838 145.047 546.469C135.689 547.138 131.574 546.202 127.273 542.425C120.755 536.704 120.523 535.449 120.137 503.702C119.796 475.776 119.833 475.137 121.938 472.459C123.629 470.309 124.929 469.725 128.016 469.725C130.839 469.725 131.942 469.304 131.942 468.226C131.942 466.948 129.276 466.726 113.946 466.726C98.6162 466.726 95.9498 466.948 95.9498 468.226ZM280.604 467.365C279.328 468.64 281.103 469.725 284.468 469.725C286.575 469.725 288.683 470.5 289.907 471.725C291.831 473.648 291.907 475.057 291.907 508.606C291.907 548.205 292.076 547.339 284.149 548.403C274.718 549.668 280.924 550.708 297.906 550.708C314.849 550.708 320.71 549.733 312.072 548.351C309.964 548.014 307.378 546.784 306.323 545.619C304.508 543.613 304.404 541.602 304.404 508.523V473.547L306.765 471.636C308.063 470.585 310.65 469.725 312.514 469.725C314.859 469.725 315.902 469.263 315.902 468.226C315.902 466.95 313.309 466.726 298.573 466.726C289.041 466.726 280.955 467.014 280.604 467.365ZM320.397 467.733C320.054 468.287 320.59 468.983 321.588 469.281C322.584 469.579 324.969 470.588 326.886 471.524C330.212 473.145 331.165 475.05 347.49 512.669C356.904 534.362 365.128 552.286 365.766 552.499C367.173 552.968 367.912 551.318 383.983 511.922C398.739 475.749 400.495 472.356 405.387 470.587C407.309 469.892 408.882 468.739 408.882 468.025C408.882 467.026 405.877 466.726 395.884 466.726C382.064 466.726 379.964 467.572 386.895 470.345C393.587 473.023 393.441 473.957 381.884 502.64C376.218 516.705 371.052 529.269 370.406 530.56C369.336 532.698 368.182 530.485 357.504 505.803C343.826 474.191 343.382 471.893 350.644 470.283C352.998 469.761 354.893 468.757 354.893 468.034C354.893 467.008 351.239 466.726 337.956 466.726C327.664 466.726 320.775 467.121 320.397 467.733ZM412.881 468.226C412.881 469.296 413.97 469.725 416.689 469.725C418.783 469.725 421.37 470.364 422.438 471.144C424.296 472.504 424.378 474.082 424.378 508.716C424.378 543.556 424.306 544.922 422.405 546.312C421.319 547.106 418.732 548.028 416.656 548.36C406.64 549.962 415.715 550.708 445.211 550.708H477.541L481.157 540.21C483.94 532.133 484.444 529.712 483.345 529.712C482.559 529.712 481.222 531.056 480.373 532.698C478.157 536.983 473.028 542.574 469.769 544.26C466.131 546.142 439.914 546.348 438.075 544.509C437.237 543.671 436.875 538.243 436.875 526.513V509.716H449.238C463.728 509.716 466.394 510.895 467.497 517.787C467.873 520.143 468.672 521.714 469.496 521.714C470.596 521.714 470.868 518.837 470.868 507.217C470.868 494.998 470.632 492.72 469.368 492.72C468.524 492.72 467.869 493.614 467.869 494.77C467.869 498.376 465.04 502.463 461.751 503.61C460.002 504.219 453.691 504.718 447.724 504.718H436.875V488.152V471.587L452.794 471.906C467.872 472.208 468.844 472.348 471.192 474.556C472.556 475.839 474.18 478.908 474.802 481.378C476.621 488.603 478.203 486.261 477.95 476.716C477.828 472.093 477.508 467.955 477.239 467.519C476.969 467.083 462.379 466.726 444.815 466.726C417.096 466.726 412.881 466.924 412.881 468.226ZM489.864 468.1C489.864 469.28 490.791 469.725 493.252 469.725C495.116 469.725 497.703 470.585 499.001 471.636L501.361 473.547V508.523C501.361 541.602 501.257 543.613 499.443 545.619C498.388 546.784 495.802 548.014 493.694 548.351C485.056 549.733 490.917 550.708 507.86 550.708C524.841 550.708 531.048 549.668 521.617 548.403C514.394 547.434 513.859 545.994 513.859 527.545V511.601L518.087 511.909L522.315 512.216L536.298 531.462L550.282 550.708H561.647C570.215 550.708 572.911 550.404 572.601 549.474C572.375 548.796 570.378 547.882 568.164 547.444C565.861 546.989 562.375 545.14 560.023 543.126C556.359 539.991 534.198 510.897 535.024 510.307C535.205 510.177 537.508 509.273 540.142 508.297C549.577 504.8 554.785 497.754 554.828 488.431C554.867 479.966 550.312 473.604 541.341 469.593C536.763 467.547 534.449 467.328 513.109 466.919C492.131 466.518 489.864 466.633 489.864 468.1ZM644.83 468.226C644.83 469.276 645.891 469.725 648.374 469.725C650.82 469.725 652.692 470.498 654.41 472.216L656.901 474.707L656.614 509.789C656.291 549.218 656.74 547.059 648.605 548.36C640.019 549.733 645.924 550.708 662.826 550.708C679.839 550.708 685.627 549.732 676.895 548.336C674.318 547.923 672.244 546.787 670.86 545.027C668.794 542.4 668.757 541.646 669.038 507.946L669.325 473.545L671.685 471.636C672.983 470.585 675.57 469.725 677.434 469.725C679.779 469.725 680.822 469.263 680.822 468.226C680.822 466.948 678.156 466.726 662.826 466.726C647.496 466.726 644.83 466.948 644.83 468.226ZM688.445 469.85C687.462 474.771 687.714 486.722 688.801 486.722C689.34 486.722 690.079 485.484 690.441 483.972C692.591 475.008 696.219 472.725 708.314 472.725H716.909L716.612 508.113C716.332 541.367 716.198 543.63 714.396 545.621C713.341 546.785 710.755 548.014 708.647 548.351C700.082 549.721 705.805 550.708 722.313 550.708C738.904 550.708 744.539 549.72 735.865 548.333C728.723 547.19 728.812 547.701 728.812 507.898V472.532L738.292 472.878C747.369 473.209 747.904 473.357 750.889 476.343C752.602 478.057 754.309 480.948 754.681 482.766C755.053 484.585 755.908 486.256 756.582 486.481C757.925 486.928 758.333 475.612 757.18 469.85L756.556 466.726H722.813H689.07L688.445 469.85ZM762.303 467.728C761.962 468.279 762.948 469.179 764.494 469.729C770.596 471.901 772.586 474.216 785.95 494.701L799.796 515.924V530.162C799.796 546.171 799.356 547.256 792.422 548.382C784.097 549.733 789.912 550.708 806.295 550.708C822.677 550.708 828.493 549.733 820.168 548.382C813.178 547.247 812.793 546.257 812.793 529.394V514.389L823.914 496.806C837.858 474.758 842.471 469.725 848.735 469.725C849.891 469.725 850.785 469.07 850.785 468.226C850.785 466.959 848.442 466.726 835.705 466.726C824.392 466.726 820.726 467.027 821.026 467.93C821.246 468.591 822.877 469.509 824.648 469.968C828.834 471.053 830.606 474.624 828.87 478.473C827.079 482.441 810.416 508.617 809.645 508.671C808.587 508.746 789.472 478.471 788.992 475.96C788.402 472.868 791.405 469.725 794.952 469.725C796.814 469.725 797.797 469.207 797.797 468.226C797.797 466.95 795.192 466.726 780.359 466.726C769.792 466.726 762.678 467.121 762.303 467.728ZM530.153 473.076C537.93 476.326 542.504 486.185 539.898 494.083C537.262 502.069 530.87 506.417 520.315 507.403L513.859 508.006V490.435C513.859 473.007 513.877 472.861 516.108 472.431C520.923 471.503 527.064 471.785 530.153 473.076ZM181.931 605.539V623.378L190.179 625.613C256.707 643.641 313.371 666.501 352.661 691.161C377.455 706.723 408.982 730.099 431.876 749.896L440.375 757.244L440.875 770.542C441.554 788.623 440.161 787.656 465.525 787.656C484.822 787.656 484.973 787.639 487.409 785.201C489.77 782.842 489.864 782.237 489.864 769.432V756.117L499.612 747.568C566.649 688.77 657.765 641.56 735.06 625.572L745.808 623.349V605.525C745.808 590.746 745.564 587.699 744.38 587.699C741.609 587.699 716.094 593.887 698.556 598.813C611.74 623.197 551.303 656.504 469.667 724.958L464.968 728.899L459.918 724.118C446.015 710.955 413.034 686.63 383.916 668.064C340.434 640.34 305.339 623.507 258.414 607.868C234.331 599.842 189.176 587.699 183.412 587.699C182.159 587.699 181.931 590.449 181.931 605.539ZM181.931 708.295C181.931 722.91 182.203 726.669 183.26 726.669C185.585 726.669 215.715 735.55 236.419 742.338C275.012 754.99 307.858 768.438 330.22 780.742C361.817 798.128 399.661 824.929 433.158 853.641L440.74 860.14L440.807 872.776C440.905 891.065 439.559 890.066 464.529 890.395C490.717 890.741 489.187 891.824 489.864 872.461L490.364 858.167L502.361 847.813C567.248 791.812 652.463 747.362 728.973 729.607C735.934 727.991 742.57 726.669 743.719 726.669C745.762 726.669 745.808 726.265 745.808 708.295V689.921L739.059 691.334C708.162 697.801 667.824 709.957 636.577 722.216C618.325 729.376 586.145 745.267 568.847 755.663C539.502 773.296 504.619 798.267 478.366 820.431L465.369 831.403L459.52 826.275C424.191 795.302 366.879 757.53 323.434 736.587C285.381 718.243 232.688 700.548 188.68 691.334L181.931 689.921V708.295ZM181.931 808.25C181.931 822.884 182.203 826.647 183.26 826.647C185.585 826.647 215.715 835.528 236.419 842.316C275.012 854.968 307.858 868.416 330.22 880.721C361.817 898.106 399.661 924.907 433.158 953.62L440.74 960.118L440.807 972.754C440.905 991.043 439.559 990.044 464.529 990.374C490.711 990.72 489.186 991.795 489.864 972.484L490.364 958.236L502.361 947.855C558.181 899.556 629.87 859.357 698.318 837.974C711.256 833.933 734.303 828.069 741.059 827.101L745.808 826.42V808.146V789.872L737.06 791.818C686.882 802.975 638.804 819.368 600.84 838.264C559.826 858.678 513.912 890.005 469.352 927.98L465.336 931.402L454.855 922.395C422.941 894.969 369.075 859.262 330.399 839.891C291.803 820.562 238.996 802.401 190.179 791.667L181.931 789.853V808.25Z" fill="white"/>
</g>
<defs>
<filter id="filter0_d_3_12" x="0.0610352" y="0" width="931.73" height="1000.51" filterUnits="userSpaceOnUse" color-interpolation-filters="sRGB">
<feFlood flood-opacity="0" result="BackgroundImageFix"/>
<feColorMatrix in="SourceAlpha" type="matrix" values="0 0 0 0 0 0 0 0 0 0 0 0 0 0 0 0 0 0 127 0" result="hardAlpha"/>
<feOffset/>
<feGaussianBlur stdDeviation="5"/>
<feComposite in2="hardAlpha" operator="out"/>
<feColorMatrix type="matrix" values="0 0 0 0 0 0 0 0 0 0 0 0 0 0 0 0 0 0 1 0"/>
<feBlend mode="normal" in2="BackgroundImageFix" result="effect1_dropShadow_3_12"/>
<feBlend mode="normal" in="SourceGraphic" in2="effect1_dropShadow_3_12" result="shape"/>
</filter>
</defs>
</svg>
