<svg width="1200" height="1200" viewBox="0 0 1200 1200" fill="none" xmlns="http://www.w3.org/2000/svg">
<path fill-rule="evenodd" clip-rule="evenodd" d="M566.376 50.9344C403.508 63.1807 259.398 161.67 188.382 309.269C163.87 360.214 149.218 414.944 144.89 471.734C143.181 494.165 144.243 541.693 146.901 561.714C156.76 635.966 181.18 700.8 222.046 761.218C232.228 776.273 248.257 797.055 258.105 807.969L262.443 812.776L273.756 801.389L285.07 790L278.144 781.973C237.364 734.703 206.271 675.935 190.012 615.394C183.622 591.604 178.93 563.879 176.866 537.719C175.22 516.853 176.248 474.534 178.905 453.737C202.767 267.016 345.883 118.27 531.384 87.3934C555.309 83.4113 569.165 82.4015 599.869 82.4015C632.659 82.4015 646.006 83.4913 673.853 88.4402C771.483 105.792 861.361 158.127 925.288 234.847C979.134 299.47 1010.68 373.404 1021.46 460.236C1024.18 482.104 1023.9 533.488 1020.94 556.215C1009.83 641.521 975.914 718.611 921.94 781.218L913.583 790.913L924.422 801.786C930.384 807.766 935.742 812.659 936.329 812.659C938.561 812.659 963.031 782.456 976.019 763.67C999.353 729.919 1020.98 685.842 1034.21 645.08C1057.78 572.469 1062.2 491.068 1046.7 414.78C1016.25 264.779 909.748 137.973 766.833 81.5377C724.294 64.7393 677.999 54.2536 631.362 50.8544C615.292 49.6826 582.485 49.7226 566.376 50.9344ZM671.557 304.465C671.292 304.908 659.956 331.364 646.365 363.257C619.661 425.925 615.19 435.449 610.706 439.223C601.645 446.847 586.201 443.744 574.656 431.978C567.693 424.885 535.514 380.695 536.596 379.714C537.029 379.321 539.857 378.208 542.881 377.24C555.922 373.068 564.553 364.927 568.013 353.534C571.758 341.205 569.194 330.295 560.323 320.811C549.685 309.438 541.663 307.851 494.569 307.804C461.94 307.771 459.774 307.879 460.086 309.519C460.345 310.879 461.752 311.385 466.408 311.792C473.837 312.443 476.665 313.971 478.481 318.315C480.425 322.97 480.565 432.881 478.63 436.645C476.462 440.864 472.384 443.077 465.911 443.545C460.848 443.912 459.9 444.277 459.9 445.859C459.9 447.657 461.205 447.739 489.893 447.739C519.22 447.739 519.886 447.695 519.886 445.739C519.886 444.03 519.22 443.74 515.289 443.74C512.76 443.74 509.105 442.987 507.167 442.068C501.149 439.212 500.605 436.591 500.098 407.997L499.651 382.753H507.225H514.8L538.405 415.246L562.011 447.739H602.935C641.873 447.739 643.859 447.65 643.859 445.916C643.859 444.468 642.571 443.855 637.611 442.941C625.715 440.749 625.174 436.532 634.121 415.746L640.36 401.249L667.07 400.983L693.781 400.716L695.202 403.482C698.888 410.653 705.95 429.225 706.491 433.171C707.014 436.987 706.759 437.919 704.597 440.08C703.013 441.663 700.402 442.834 697.474 443.273C693.853 443.816 692.849 444.376 692.849 445.853C692.849 447.655 694.066 447.739 720.343 447.739C746.749 447.739 747.837 447.663 747.837 445.827C747.837 444.389 746.886 443.755 744.004 443.268C738.27 442.299 734.208 439.361 730.502 433.504C726.794 427.643 726.435 426.815 696.542 355.262C676.399 307.046 673.519 301.191 671.557 304.465ZM820.318 304.849C811.595 305.869 800.403 309.599 793.018 313.947C783.442 319.586 772.96 330.903 767.512 341.488C760.554 355.006 758.542 363.442 758.51 379.254C758.477 394.89 760.137 402.671 766.081 414.746C769.381 421.451 772.063 425.059 778.796 431.848C792.205 445.37 805.682 450.738 826.225 450.738C848.777 450.738 865.955 441.743 878.75 423.234C883.61 416.204 883.919 415.43 882.454 413.964C881.575 413.085 880.714 412.563 880.542 412.806C876.399 418.62 867.849 428.398 864.524 431.121C846.201 446.135 816.301 444.83 798.928 428.259C792.027 421.677 787.595 413.86 784.643 403.062C782.867 396.568 782.504 392.468 782.492 378.754C782.477 360.114 784.376 349.686 789.891 338.132C806.253 303.846 853.607 302.755 870.985 336.263C872.98 340.112 875.179 345.174 875.87 347.511C876.779 350.589 877.651 351.76 879.035 351.76C880.801 351.76 880.902 351.173 880.371 344.011C880.055 339.75 879.313 329.29 878.722 320.766C878.131 312.243 877.252 304.862 876.771 304.362C875.734 303.29 872.809 305.419 872.809 307.245C872.809 309.324 868.031 313.768 865.795 313.768C864.633 313.768 861.337 312.695 858.47 311.384C844.886 305.17 833.807 303.272 820.318 304.849ZM319.116 309.519C319.376 310.885 320.773 311.379 325.486 311.768C332.944 312.386 336.505 314.6 337.941 319.513C338.698 322.1 338.944 340.856 338.733 379.9C338.435 434.893 338.368 436.597 336.427 438.775C333.65 441.887 328.812 443.74 323.461 443.74C319.538 443.74 318.93 444.019 318.93 445.82V447.901L363.171 447.472C411.053 447.006 414.15 446.692 425.014 441.186C436.427 435.402 444.11 423.681 444.75 411.08C445.18 402.596 443.934 398.064 439.254 391.097C435.2 385.06 429.831 381.237 421.14 378.198L414.874 376.006L420.282 373.36C431.622 367.812 438.281 357.247 438.341 344.713C438.427 326.803 425.676 313.776 403.704 309.329C397.512 308.076 388.41 307.769 357.391 307.769C321.162 307.769 318.804 307.877 319.116 309.519ZM397.382 317.77C417.228 325.431 423.223 349.038 408.86 362.966C401.823 369.788 396.359 371.226 377.418 371.242C369.169 371.249 361.633 370.933 360.671 370.537C359.069 369.879 358.922 367.642 358.922 343.851C358.922 325.196 359.249 317.683 360.084 317.166C362.893 315.431 368.222 314.879 379.417 315.163C389.043 315.407 392.594 315.922 397.382 317.77ZM530.452 318.504C535.259 321.006 541.514 327.641 543.461 332.301C545.631 337.493 546.269 345.976 544.914 351.621C541.364 366.422 528.596 374.779 509.024 375.109L500.391 375.255V346.261V317.267L503.89 316.595C505.815 316.226 511.663 316.027 516.887 316.155C524.297 316.335 527.279 316.851 530.452 318.504ZM679.724 365.757L690.768 392.251L678.754 392.532C672.146 392.687 661.659 392.687 655.449 392.532L644.157 392.251L655.756 365.078C662.135 350.133 667.652 338.211 668.017 338.584C668.382 338.957 673.65 351.185 679.724 365.757ZM393.115 380.868C410.303 384.484 420.888 395.871 420.888 410.747C420.888 422.442 415.076 430.985 403.412 436.437C397.585 439.161 396.941 439.24 380.917 439.197C370.543 439.17 363.4 438.715 361.671 437.972L358.922 436.791V408.938C358.922 393.62 359.222 380.786 359.588 380.42C360.693 379.315 387.427 379.672 393.115 380.868ZM729.037 506.564C719.376 510.009 713.844 517.531 713.844 527.221C713.844 538.166 718.059 542.751 739.241 554.847C754.136 563.355 757.835 567.221 757.835 574.284C757.835 584.322 745.509 590.591 733.739 586.538C725.061 583.55 720.214 578.045 717.791 568.422C717.115 565.735 716.094 563.796 715.465 564.006C713.793 564.563 713.917 591.898 715.594 592.457C716.282 592.686 716.843 592.216 716.843 591.413C716.843 590.61 717.499 589.409 718.3 588.744C719.458 587.782 721.558 588.065 728.548 590.122C742.426 594.204 751.511 593.369 759.954 587.234C771.436 578.892 771.974 561.943 761.054 552.66C758.825 550.766 751.095 545.874 743.876 541.788C728.399 533.031 723.842 528.69 723.842 522.704C723.842 517.293 728.747 511.763 734.4 510.803C746.903 508.68 758.415 517.205 760.514 530.139C760.852 532.22 761.669 533.72 762.465 533.72C763.56 533.72 763.833 530.827 763.833 519.223C763.833 511.25 763.512 504.726 763.121 504.726C762.73 504.726 761.417 505.964 760.205 507.476L758.003 510.225L751.49 507.911C742.314 504.649 735.542 504.243 729.037 506.564ZM229.95 508.226C229.95 509.216 230.941 509.725 232.867 509.725C241.198 509.725 241.363 510.353 241.947 544.218L242.447 573.211L245.53 578.71C251.34 589.07 261.618 593.442 277.795 592.435C291.575 591.577 301.616 584.757 305.027 573.936C305.738 571.683 306.445 559.02 306.817 541.877C307.431 513.647 307.442 513.536 309.793 511.634C311.524 510.235 313.738 509.725 318.091 509.725C324.675 509.725 328.056 511.103 332.217 515.481L335.007 518.416L334.717 550.959C334.39 587.606 334.495 587.114 326.76 588.351C318.688 589.642 323.512 590.708 337.426 590.708C351.34 590.708 356.164 589.642 348.093 588.351C340.459 587.13 340.468 587.167 340.095 554.502C339.877 535.413 340.104 525.714 340.76 526.119C341.308 526.458 352.656 540.117 365.979 556.472C392.686 589.259 395.839 592.871 397.071 592.109C397.534 591.823 397.913 574.156 397.913 552.848C397.913 521.814 398.183 513.737 399.269 512.252C400.06 511.172 402.424 510.153 404.937 509.811C407.308 509.489 409.435 508.663 409.663 507.976C409.982 507.013 406.616 506.726 394.997 506.726C382.26 506.726 379.917 506.959 379.917 508.226C379.917 509.304 381.02 509.725 383.845 509.725C388.058 509.725 390.575 511.487 391.445 515.044C391.737 516.243 391.85 528.838 391.695 543.035L391.415 568.845L366.102 537.786L340.79 506.726H314.863C292.484 506.726 288.937 506.931 288.937 508.226C288.937 509.296 290.027 509.725 292.745 509.725C294.84 509.725 297.426 510.364 298.494 511.145C300.338 512.495 300.434 514.016 300.434 541.888V571.212L297.935 575.67C294.297 582.159 287.862 585.838 279.047 586.468C269.689 587.138 265.574 586.202 261.273 582.425C254.755 576.704 254.523 575.449 254.137 543.702C253.796 515.776 253.833 515.137 255.938 512.459C257.629 510.309 258.928 509.725 262.016 509.725C264.839 509.725 265.942 509.304 265.942 508.226C265.942 506.948 263.276 506.726 247.946 506.726C232.616 506.726 229.95 506.948 229.95 508.226ZM414.603 507.365C413.328 508.64 415.103 509.725 418.468 509.725C420.575 509.725 422.683 510.5 423.907 511.725C425.831 513.648 425.907 515.057 425.907 548.606C425.907 588.205 426.076 587.339 418.149 588.403C408.718 589.668 414.924 590.708 431.906 590.708C448.849 590.708 454.71 589.733 446.072 588.351C443.964 588.014 441.378 586.784 440.323 585.619C438.508 583.613 438.404 581.602 438.404 548.523V513.547L440.765 511.636C442.062 510.585 444.65 509.725 446.514 509.725C448.859 509.725 449.902 509.263 449.902 508.226C449.902 506.95 447.309 506.726 432.573 506.726C423.041 506.726 414.955 507.014 414.603 507.365ZM454.397 507.733C454.054 508.287 454.59 508.983 455.588 509.281C456.584 509.579 458.969 510.588 460.886 511.524C464.212 513.145 465.165 515.05 481.49 552.669C490.904 574.362 499.128 592.286 499.766 592.499C501.173 592.968 501.912 591.318 517.983 551.922C532.739 515.749 534.495 512.356 539.387 510.587C541.309 509.892 542.881 508.739 542.881 508.025C542.881 507.026 539.877 506.726 529.884 506.726C516.064 506.726 513.964 507.572 520.895 510.345C527.587 513.022 527.441 513.957 515.884 542.64C510.218 556.705 505.052 569.269 504.406 570.56C503.336 572.698 502.182 570.485 491.504 545.803C477.826 514.191 477.382 511.893 484.644 510.283C486.998 509.761 488.893 508.757 488.893 508.034C488.893 507.008 485.239 506.726 471.956 506.726C461.664 506.726 454.775 507.121 454.397 507.733ZM546.881 508.226C546.881 509.296 547.97 509.725 550.689 509.725C552.783 509.725 555.37 510.364 556.438 511.144C558.296 512.504 558.378 514.082 558.378 548.716C558.378 583.556 558.306 584.922 556.405 586.313C555.319 587.106 552.732 588.028 550.656 588.36C540.64 589.962 549.715 590.708 579.211 590.708H611.54L615.157 580.21C617.94 572.133 618.444 569.712 617.345 569.712C616.559 569.712 615.222 571.056 614.373 572.698C612.157 576.983 607.028 582.574 603.769 584.26C600.131 586.142 573.914 586.347 572.075 584.509C571.237 583.671 570.875 578.243 570.875 566.513V549.716H583.238C597.727 549.716 600.394 550.895 601.497 557.787C601.873 560.143 602.672 561.714 603.496 561.714C604.596 561.714 604.868 558.837 604.868 547.217C604.868 534.998 604.632 532.72 603.368 532.72C602.523 532.72 601.869 533.614 601.869 534.77C601.869 538.376 599.04 542.463 595.751 543.61C594.002 544.219 587.691 544.718 581.724 544.718H570.875V528.152V511.587L586.794 511.906C601.872 512.208 602.844 512.348 605.192 514.556C606.556 515.839 608.18 518.908 608.802 521.378C610.621 528.603 612.203 526.261 611.95 516.716C611.828 512.093 611.508 507.955 611.239 507.519C610.969 507.083 596.379 506.726 578.815 506.726C551.096 506.726 546.881 506.924 546.881 508.226ZM623.864 508.1C623.864 509.28 624.791 509.725 627.252 509.725C629.116 509.725 631.703 510.585 633.001 511.636L635.361 513.547V548.523C635.361 581.602 635.257 583.613 633.443 585.619C632.388 586.784 629.801 588.014 627.694 588.351C619.056 589.733 624.917 590.708 641.86 590.708C658.841 590.708 665.048 589.668 655.617 588.403C648.394 587.434 647.859 585.994 647.859 567.545V551.601L652.087 551.909L656.315 552.216L670.298 571.462L684.282 590.708H695.647C704.215 590.708 706.911 590.404 706.601 589.474C706.375 588.796 704.378 587.882 702.164 587.444C699.861 586.989 696.375 585.14 694.022 583.126C690.359 579.991 668.198 550.897 669.024 550.307C669.205 550.177 671.508 549.273 674.142 548.297C683.577 544.8 688.785 537.754 688.828 528.431C688.867 519.966 684.312 513.604 675.341 509.593C670.763 507.547 668.449 507.328 647.109 506.919C626.131 506.518 623.864 506.633 623.864 508.1ZM778.83 508.226C778.83 509.276 779.891 509.725 782.374 509.725C784.82 509.725 786.692 510.498 788.41 512.216L790.901 514.707L790.614 549.789C790.291 589.218 790.74 587.059 782.605 588.36C774.019 589.733 779.924 590.708 796.826 590.708C813.839 590.708 819.627 589.732 810.895 588.336C808.318 587.923 806.244 586.787 804.86 585.027C802.794 582.4 802.757 581.646 803.038 547.946L803.325 513.545L805.685 511.636C806.983 510.585 809.57 509.725 811.434 509.725C813.779 509.725 814.822 509.263 814.822 508.226C814.822 506.948 812.156 506.726 796.826 506.726C781.496 506.726 778.83 506.948 778.83 508.226ZM822.445 509.85C821.462 514.771 821.714 526.722 822.801 526.722C823.34 526.722 824.079 525.484 824.441 523.972C826.591 515.008 830.219 512.725 842.314 512.725H850.909L850.612 548.113C850.332 581.367 850.198 583.63 848.396 585.621C847.341 586.785 844.755 588.014 842.647 588.351C834.082 589.721 839.805 590.708 856.313 590.708C872.904 590.708 878.539 589.72 869.865 588.333C862.723 587.19 862.812 587.701 862.812 547.898V512.532L872.292 512.878C881.369 513.209 881.904 513.357 884.889 516.343C886.602 518.057 888.309 520.948 888.681 522.766C889.053 524.585 889.908 526.256 890.582 526.481C891.925 526.928 892.333 515.612 891.18 509.85L890.556 506.726H856.813H823.07L822.445 509.85ZM896.303 507.728C895.962 508.279 896.948 509.179 898.494 509.729C904.596 511.901 906.586 514.216 919.95 534.701L933.796 555.924V570.162C933.796 586.171 933.356 587.256 926.422 588.382C918.097 589.733 923.912 590.708 940.295 590.708C956.677 590.708 962.493 589.733 954.168 588.382C947.178 587.247 946.793 586.257 946.793 569.394V554.389L957.914 536.806C971.858 514.758 976.471 509.725 982.735 509.725C983.891 509.725 984.785 509.07 984.785 508.226C984.785 506.959 982.443 506.726 969.705 506.726C958.392 506.726 954.726 507.027 955.026 507.93C955.246 508.591 956.877 509.509 958.648 509.968C962.834 511.053 964.606 514.624 962.87 518.473C961.079 522.441 944.416 548.617 943.645 548.671C942.587 548.746 923.472 518.471 922.992 515.96C922.402 512.868 925.405 509.725 928.952 509.725C930.814 509.725 931.797 509.207 931.797 508.226C931.797 506.95 929.192 506.726 914.359 506.726C903.792 506.726 896.678 507.121 896.303 507.728ZM664.153 513.076C671.93 516.326 676.504 526.185 673.898 534.083C671.262 542.069 664.87 546.417 654.315 547.403L647.859 548.006V530.435C647.859 513.007 647.877 512.861 650.108 512.431C654.923 511.503 661.064 511.785 664.153 513.076ZM315.931 645.539V663.378L324.179 665.613C390.707 683.641 447.371 706.501 486.661 731.161C511.455 746.724 542.982 770.099 565.876 789.896L574.375 797.244L574.874 810.542C575.554 828.623 574.161 827.656 599.525 827.656C618.822 827.656 618.973 827.639 621.409 825.201C623.77 822.842 623.864 822.237 623.864 809.432V796.117L633.612 787.568C700.649 728.77 791.765 681.56 869.06 665.572L879.808 663.349V645.525C879.808 630.746 879.564 627.699 878.38 627.699C875.609 627.699 850.094 633.887 832.556 638.813C745.74 663.197 685.303 696.504 603.667 764.958L598.968 768.899L593.918 764.118C580.015 750.955 547.034 726.63 517.916 708.064C474.434 680.34 439.339 663.507 392.414 647.868C368.331 639.842 323.176 627.699 317.412 627.699C316.159 627.699 315.931 630.449 315.931 645.539ZM315.931 748.295C315.931 762.91 316.203 766.669 317.26 766.669C319.585 766.669 349.715 775.55 370.419 782.338C409.012 794.99 441.858 808.438 464.22 820.742C495.817 838.128 533.661 864.929 567.158 893.641L574.74 900.14L574.807 912.776C574.904 931.065 573.559 930.066 598.529 930.395C624.717 930.741 623.187 931.824 623.864 912.461L624.364 898.167L636.361 887.813C701.248 831.812 786.463 787.362 862.973 769.606C869.934 767.991 876.57 766.669 877.719 766.669C879.762 766.669 879.808 766.265 879.808 748.295V729.921L873.059 731.334C842.162 737.801 801.824 749.957 770.577 762.216C752.325 769.376 720.145 785.267 702.847 795.663C673.502 813.296 638.619 838.266 612.366 860.431L599.369 871.403L593.52 866.275C558.191 835.302 500.879 797.53 457.434 776.587C419.381 758.243 366.688 740.548 322.68 731.334L315.931 729.921V748.295ZM315.931 848.25C315.931 862.884 316.203 866.647 317.26 866.647C319.585 866.647 349.715 875.528 370.419 882.316C409.012 894.968 441.858 908.416 464.22 920.721C495.817 938.106 533.661 964.907 567.158 993.62L574.74 1000.12L574.807 1012.75C574.904 1031.04 573.559 1030.04 598.529 1030.37C624.711 1030.72 623.186 1031.8 623.864 1012.48L624.364 998.236L636.361 987.855C692.181 939.556 763.87 899.357 832.318 877.974C845.256 873.933 868.303 868.069 875.059 867.101L879.808 866.42V848.146V829.872L871.06 831.818C820.882 842.976 772.804 859.368 734.84 878.264C693.826 898.678 647.912 930.005 603.352 967.98L599.336 971.402L588.855 962.395C556.941 934.969 503.075 899.262 464.399 879.891C425.803 860.562 372.996 842.401 324.179 831.667L315.931 829.853V848.25ZM258.515 1070.17C256.557 1072.13 256.559 1072.61 258.541 1075.44C260.445 1078.16 263.631 1077.98 265.564 1075.06C266.714 1073.32 266.685 1072.68 265.372 1070.81C263.562 1068.22 260.728 1067.96 258.515 1070.17ZM360.741 1071.1C358.416 1076.2 365.433 1079.76 368.542 1075.06C369.691 1073.32 369.662 1072.68 368.35 1070.81C366.211 1067.75 362.195 1067.91 360.741 1071.1ZM876.309 1070.73C870.012 1073.27 868.551 1074.6 872.075 1074.6C873.685 1074.6 875.148 1075.37 875.774 1076.54C876.884 1078.61 877.236 1122.39 876.176 1126.35C875.838 1127.61 874.516 1128.88 873.19 1129.21C867.942 1130.53 871.346 1131.59 880.808 1131.59C890.438 1131.59 893.904 1130.46 887.936 1129.27C886.058 1128.89 884.854 1127.9 884.451 1126.39C884.112 1125.13 883.828 1111.61 883.821 1096.35C883.81 1074.8 883.528 1068.62 882.557 1068.66C881.87 1068.69 879.058 1069.62 876.309 1070.73ZM925.298 1070.73C919.001 1073.27 917.541 1074.6 921.064 1074.6C922.675 1074.6 924.137 1075.37 924.763 1076.54C925.873 1078.61 926.226 1122.39 925.165 1126.35C924.827 1127.61 923.505 1128.88 922.18 1129.21C916.932 1130.53 920.335 1131.59 929.797 1131.59C939.427 1131.59 942.893 1130.46 936.925 1129.27C935.047 1128.89 933.843 1127.9 933.44 1126.39C933.101 1125.13 932.817 1111.61 932.81 1096.35C932.799 1074.8 932.517 1068.62 931.547 1068.66C930.86 1068.69 928.047 1069.62 925.298 1070.73ZM0 1072.6C0 1073.15 1.25972 1073.6 2.79939 1073.6C7.91427 1073.6 7.99825 1074.06 7.99825 1101.76C7.99825 1126.2 7.89928 1127.57 6.06468 1128.56C5.00091 1129.12 3.2013 1129.59 2.06555 1129.59C0.929797 1129.59 0 1130.04 0 1130.59C0 1131.2 4.99891 1131.59 12.9972 1131.59C20.9954 1131.59 25.9943 1131.2 25.9943 1130.59C25.9943 1130.04 24.8696 1129.59 23.4949 1129.59C22.1202 1129.59 20.0736 1128.67 18.9469 1127.54C16.9753 1125.57 16.9103 1124.57 17.1972 1100.51C17.5172 1073.73 17.5342 1073.65 22.686 1073.62C23.8908 1073.61 25.1545 1073.15 25.4944 1072.6C25.8943 1071.96 21.5053 1071.6 13.0561 1071.6C5.0189 1071.6 0 1071.99 0 1072.6ZM593.37 1072.6C593.71 1073.15 594.974 1073.61 596.179 1073.62C601.375 1073.65 601.369 1073.62 601.369 1101.14C601.369 1125.34 601.262 1126.83 599.428 1128.17C598.36 1128.95 596.449 1129.59 595.179 1129.59C593.909 1129.59 592.871 1130.05 592.871 1130.61C592.871 1131.28 600.803 1131.53 616.032 1131.36L639.193 1131.09L641.672 1124.32C644.015 1117.92 643.979 1113.79 641.618 1118.1C641.018 1119.2 638.855 1121.78 636.812 1123.84L633.097 1127.59H622.682C615.914 1127.59 611.846 1127.17 611.067 1126.39C610.269 1125.59 609.867 1121.24 609.867 1113.39V1101.6H617.8C627.86 1101.6 630.721 1102.64 631.513 1106.6C632.832 1113.19 633.859 1110.18 633.791 1099.91L633.721 1089.1L631.863 1093.28C630.194 1097.03 629.568 1097.52 625.685 1098.09C623.309 1098.45 618.89 1098.59 615.866 1098.41L610.367 1098.1L610.085 1086.35L609.804 1074.6H619.768C632.147 1074.6 634.523 1075.44 636.687 1080.59C637.608 1082.79 638.698 1084.58 639.11 1084.59C640.005 1084.6 640.12 1075.44 639.253 1073.18C638.725 1071.81 635.702 1071.6 615.7 1071.6C600.656 1071.6 592.966 1071.95 593.37 1072.6ZM58.3583 1091.92C53.3084 1094.06 51.2778 1096.39 54.97 1095.8C58.1653 1095.28 58.9871 1098.8 58.9871 1112.96C58.9871 1123.89 58.6892 1126.75 57.4165 1128.02C56.5517 1128.88 55.2019 1129.59 54.4171 1129.59C53.6313 1129.59 52.9884 1130.04 52.9884 1130.59C52.9884 1131.19 56.9876 1131.59 62.9862 1131.59C68.9849 1131.59 72.9841 1131.19 72.9841 1130.59C72.9841 1130.04 72.1742 1129.59 71.1845 1129.59C67.4943 1129.59 66.9854 1127.64 66.9854 1113.46V1099.73L69.9747 1097.6C72.0443 1096.13 74.1138 1095.57 76.7003 1095.79C82.1321 1096.24 82.9499 1098.58 82.9669 1113.77C82.9829 1127.27 82.233 1129.59 77.853 1129.59C76.7592 1129.59 76.1434 1130.04 76.4833 1130.59C76.8242 1131.14 81.3262 1131.59 86.5401 1131.59C92.1659 1131.59 95.979 1131.19 95.979 1130.59C95.979 1130.04 95.3302 1129.59 94.5364 1129.59C91.0031 1129.59 89.9804 1125.59 89.9804 1111.77C89.9804 1096.64 88.8246 1092.6 83.9057 1090.57C79.9485 1088.93 75.2976 1090.01 70.8075 1093.62C68.77 1095.26 66.9594 1096.6 66.7844 1096.6C66.6095 1096.6 66.4705 1095.15 66.4755 1093.37C66.4875 1089.33 65.0678 1089.08 58.3583 1091.92ZM130.734 1091.16C127.566 1092.88 124.973 1097.35 124.973 1101.1C124.973 1105.95 127.717 1109.36 134.722 1113.2C143.469 1118.01 145.968 1120.32 145.968 1123.61C145.968 1132.52 131.888 1130.88 128.222 1121.55C127.368 1119.37 126.287 1117.59 125.821 1117.59C125.355 1117.59 124.973 1120.72 124.973 1124.55C124.973 1131.49 124.98 1131.51 127.722 1131.44C129.234 1131.41 132.986 1131.71 136.059 1132.11C145.174 1133.3 151.337 1129.32 152.594 1121.45C153.427 1116.23 149.885 1111.96 140.662 1107.04C136.375 1104.76 132.385 1102.41 131.794 1101.82C130.099 1100.12 130.544 1095.38 132.537 1093.93C137.275 1090.46 144.861 1093.71 146.973 1100.11C148.784 1105.6 149.967 1104.21 149.967 1096.6C149.967 1089.8 149.426 1088.54 147.378 1090.59C146.724 1091.24 145.214 1091.24 142.935 1090.59C138.15 1089.22 133.96 1089.41 130.734 1091.16ZM185.998 1092.07C180.777 1094.26 177.787 1096.98 181.723 1095.95C185.666 1094.92 186.008 1097.19 185.727 1122.61C185.442 1148.48 185.707 1147.14 180.461 1149.25C178.059 1150.21 186.84 1150.86 195.707 1150.37C199.822 1150.14 200.888 1149.82 199.456 1149.25C194.52 1147.26 194.467 1147.15 194.17 1138.27L193.881 1129.67L196.669 1131.12C203.203 1134.53 212.981 1131.56 217.394 1124.82C226.525 1110.88 220.344 1089.62 207.155 1089.6C202.953 1089.6 198.735 1091.78 196.092 1095.32L194.021 1098.1L193.99 1093.85C193.953 1088.92 193.643 1088.85 185.998 1092.07ZM257.194 1092.1C254.307 1093.41 251.945 1094.95 251.945 1095.51C251.945 1096.07 252.626 1096.27 253.458 1095.95C254.289 1095.63 255.639 1095.93 256.457 1096.61C257.649 1097.6 257.944 1100.75 257.944 1112.52C257.944 1127.67 257.472 1129.59 253.745 1129.59C252.755 1129.59 251.945 1130.04 251.945 1130.59C251.945 1131.19 255.944 1131.59 261.943 1131.59C267.942 1131.59 271.941 1131.19 271.941 1130.59C271.941 1130.04 271.131 1129.59 270.141 1129.59C266.289 1129.59 265.942 1127.84 265.942 1108.39C265.942 1086.96 266.444 1087.9 257.194 1092.1ZM304.305 1091.94C301.485 1093.12 299.222 1094.55 299.277 1095.1C299.331 1095.65 299.985 1095.96 300.729 1095.79C304.319 1094.96 304.933 1097.45 304.933 1112.8V1127.76L301.934 1128.9C300.284 1129.52 298.935 1130.38 298.935 1130.81C298.935 1131.24 303.659 1131.59 309.432 1131.59C315.764 1131.59 319.93 1131.19 319.93 1130.59C319.93 1130.04 319.062 1129.59 318.002 1129.59C313.682 1129.59 312.932 1127.23 312.932 1113.67C312.932 1101.37 313.028 1100.78 315.468 1098.15C317.914 1095.51 318.094 1095.47 320.526 1097.07C324.296 1099.54 327.357 1098.73 327.764 1095.15C327.987 1093.18 327.505 1091.76 326.324 1090.9C323.327 1088.71 320.174 1089.42 316.464 1093.13L312.932 1096.66V1093.13C312.932 1088.91 311.837 1088.76 304.305 1091.94ZM360.171 1092.09C357.285 1093.41 354.923 1094.95 354.923 1095.51C354.923 1096.07 355.603 1096.27 356.435 1095.95C357.267 1095.63 358.617 1095.93 359.435 1096.61C360.626 1097.6 360.921 1100.75 360.921 1112.52C360.921 1127.67 360.449 1129.59 356.722 1129.59C355.732 1129.59 354.923 1130.04 354.923 1130.59C354.923 1131.19 358.922 1131.59 364.92 1131.59C370.919 1131.59 374.918 1131.19 374.918 1130.59C374.918 1130.04 374.073 1129.59 373.041 1129.59C369.425 1129.59 368.972 1127.4 368.693 1108.53C368.382 1087.57 368.702 1088.19 360.171 1092.09ZM407.282 1091.92C404.463 1093.12 402.199 1094.55 402.254 1095.1C402.308 1095.65 402.962 1095.96 403.707 1095.79C407.247 1094.97 407.911 1097.5 407.911 1111.78C407.911 1126.32 407.17 1129.59 403.877 1129.59C402.796 1129.59 401.912 1130.04 401.912 1130.59C401.912 1131.19 405.911 1131.59 411.91 1131.59C417.909 1131.59 421.908 1131.19 421.908 1130.59C421.908 1130.04 421.098 1129.59 420.108 1129.59C416.414 1129.59 415.909 1127.64 415.909 1113.38V1099.57L419.158 1097.56C421.161 1096.32 423.741 1095.66 425.884 1095.83C431.022 1096.23 431.874 1098.77 431.891 1113.77C431.907 1127.27 431.157 1129.59 426.777 1129.59C425.683 1129.59 425.067 1130.04 425.407 1130.59C426.169 1131.82 444.903 1131.93 444.903 1130.71C444.903 1130.22 444.008 1129.59 442.915 1129.3C439.774 1128.48 438.904 1124.4 438.904 1110.48C438.904 1095.88 437.946 1092.69 432.946 1090.62C428.869 1088.93 424.271 1089.97 419.735 1093.62L416.035 1096.59L415.722 1093.35C415.334 1089.34 413.933 1089.1 407.282 1091.92ZM483.914 1091.35C475.624 1095.52 473.154 1106.4 478.991 1113.05L482.087 1116.58L479.56 1119.58C475.804 1124.04 475.326 1126.46 477.728 1128.87L479.768 1130.91L476.455 1135C471.668 1140.91 471.239 1143.07 474.296 1145.91C477.632 1149 483.231 1150.59 490.791 1150.59C498.264 1150.59 503.168 1148.68 508.13 1143.84C512.595 1139.49 513.726 1135.11 511.494 1130.79C509.537 1127.01 506.275 1125.96 493.892 1125.13C483.395 1124.43 480.957 1123.26 483.304 1120.05C484.466 1118.46 485.952 1118.09 491.265 1118.07C496.262 1118.06 498.44 1117.57 500.532 1116.01C506.636 1111.45 508.53 1106.26 506.613 1099.35C505.887 1096.72 506.014 1096.6 509.37 1096.6C512.221 1096.6 512.888 1096.22 512.888 1094.6C512.888 1092.85 512.221 1092.6 507.503 1092.6C504.542 1092.6 500.831 1091.93 499.255 1091.1C495.402 1089.09 488.172 1089.21 483.914 1091.35ZM754.335 1090.96C750.49 1092.76 745.291 1098.25 743.793 1102.1C741.89 1106.98 742.344 1117.71 744.643 1122.19C752.448 1137.41 771.043 1135.29 775.821 1118.63C776.991 1114.55 775.504 1114.79 772.963 1119.09C768.717 1126.29 759.458 1127.5 754.422 1121.51C747.035 1112.73 749.158 1095 757.826 1093.1C762.503 1092.07 764.662 1093.29 765.987 1097.72C767.282 1102.04 769.813 1104.05 772.776 1103.11C776.938 1101.79 775.81 1096.11 770.623 1092.27C767.192 1089.73 758.476 1089.03 754.335 1090.96ZM817.138 1091.54C810.564 1094.53 807.406 1100.15 806.974 1109.65C806.698 1115.7 807.047 1118.31 808.604 1121.83C814.791 1135.82 832.64 1135.99 838.937 1122.13C842.03 1115.32 840.812 1112.73 837.451 1118.97C834.145 1125.11 826.994 1126.72 820.601 1122.76C816.597 1120.28 814.275 1116.47 813.347 1110.84L812.647 1106.59H826.731C840.678 1106.59 840.816 1106.57 840.794 1104.35C840.782 1103.11 839.917 1100.21 838.87 1097.91C835.439 1090.35 825.912 1087.56 817.138 1091.54ZM979.102 1091.54C972.529 1094.53 969.37 1100.15 968.938 1109.65C968.663 1115.7 969.011 1118.31 970.569 1121.83C976.876 1136.09 995.462 1135.84 1001.23 1121.43C1003.28 1116.3 1001.87 1114.41 999.406 1118.99C993.343 1130.25 977.457 1124.89 975.208 1110.83L974.541 1106.65L988.398 1106.37C1004.22 1106.06 1004.53 1105.85 1000.86 1098.26C997.031 1090.35 987.92 1087.54 979.102 1091.54ZM1039.77 1090.33C1038.95 1090.65 1036.25 1091.81 1033.77 1092.91L1029.28 1094.92L1032.25 1095.51C1034.84 1096.03 1035.32 1096.68 1036.04 1100.6C1036.5 1103.07 1036.73 1109.87 1036.56 1115.7C1036.24 1126.79 1035.25 1129.59 1031.65 1129.59C1030.62 1129.59 1029.78 1130.04 1029.78 1130.59C1029.78 1131.19 1033.77 1131.59 1039.77 1131.59C1045.77 1131.59 1049.77 1131.19 1049.77 1130.59C1049.77 1130.04 1049.13 1129.59 1048.34 1129.59C1047.56 1129.59 1046.21 1128.88 1045.34 1128.02C1044.08 1126.75 1043.77 1123.95 1043.77 1113.61V1100.77L1046.85 1098.19C1050.73 1094.92 1057.15 1094.56 1058.73 1097.53C1059.3 1098.6 1059.77 1105.68 1059.77 1113.33C1059.77 1127.64 1059.27 1129.59 1055.57 1129.59C1054.58 1129.59 1053.77 1130.04 1053.77 1130.59C1053.77 1131.19 1057.77 1131.59 1063.77 1131.59C1069.77 1131.59 1073.77 1131.19 1073.77 1130.59C1073.77 1130.04 1073.12 1129.59 1072.34 1129.59C1071.55 1129.59 1070.2 1128.88 1069.34 1128.02C1068.07 1126.75 1067.77 1123.89 1067.77 1112.99C1067.77 1098.42 1066.75 1094.1 1062.65 1091.23C1058.16 1088.08 1052.94 1089.31 1047.02 1094.91L1043.77 1097.99V1093.79C1043.77 1089.6 1043.13 1089.04 1039.77 1090.33ZM1113.26 1091C1109.22 1092.78 1104.8 1097.33 1102.99 1101.6C1101.3 1105.57 1101.08 1116.76 1102.61 1120.73C1105.57 1128.42 1113.9 1133.54 1121.22 1132.16C1127.67 1130.95 1135.55 1121.98 1134.58 1116.93C1134.31 1115.53 1133.74 1115.95 1132.06 1118.79C1127.96 1125.74 1119.47 1127.49 1114.14 1122.48C1106.19 1115.02 1107.36 1096.27 1115.97 1093.2C1120.48 1091.6 1123.56 1093.16 1124.77 1097.65C1126.66 1104.68 1133.75 1105.46 1133.75 1098.65C1133.75 1091.8 1121.67 1087.29 1113.26 1091ZM1176.06 1091.54C1169.6 1094.48 1166.36 1100.14 1165.89 1109.32C1165.44 1118.35 1167.39 1124.19 1172.29 1128.49C1178.1 1133.6 1186.92 1133.83 1192.63 1129.03C1196.37 1125.88 1200.4 1117.85 1198.96 1116.42C1198.26 1115.72 1197.74 1116 1197.33 1117.32C1196.09 1121.2 1191.08 1124.86 1187.01 1124.86C1179.27 1124.86 1173.54 1119.43 1172.16 1110.8L1171.49 1106.59H1185.74H1200L1199.4 1102.87C1197.66 1092.18 1186.54 1086.78 1176.06 1091.54ZM670.854 1091.53C670.854 1092.04 671.849 1092.6 673.066 1092.78C675.358 1093.11 683.144 1102.01 686.352 1107.97L688.154 1111.31L681.929 1119.49C678.507 1123.99 674.839 1128.21 673.78 1128.87C670.492 1130.92 671.613 1131.59 678.352 1131.59C681.926 1131.59 684.85 1131.32 684.85 1131C684.85 1130.68 683.867 1129.61 682.664 1128.64L680.477 1126.87L684.913 1120.76C687.353 1117.4 689.662 1114.64 690.044 1114.62C691.124 1114.58 698.847 1125.74 698.847 1127.35C698.847 1128.13 697.948 1129.01 696.848 1129.3C692.108 1130.54 695.547 1131.59 704.346 1131.59C709.57 1131.59 713.841 1131.25 713.838 1130.84C713.834 1130.43 712.597 1129.38 711.089 1128.52C709.58 1127.66 705.306 1122.57 701.591 1117.21L694.837 1107.46L699.51 1101.38C702.081 1098.04 705.455 1094.59 707.008 1093.7C708.561 1092.82 709.835 1091.76 709.839 1091.35C709.842 1090.94 706.696 1090.6 702.847 1090.6C696.305 1090.6 693.894 1091.63 697.348 1092.96C699.65 1093.84 699.093 1096.74 695.878 1100.6C693.031 1104.01 692.928 1104.05 691.48 1102.1C687.347 1096.52 686.75 1094.84 688.341 1093.25C689.171 1092.42 689.849 1091.48 689.849 1091.17C689.849 1090.86 685.575 1090.6 680.351 1090.6C675.128 1090.6 670.854 1091.02 670.854 1091.53ZM496.062 1094.3C499.991 1097.74 500.65 1109.85 497.125 1113.84C493.939 1117.46 487.631 1115.71 484.805 1110.43C483.342 1107.7 483.358 1098.47 484.829 1095.72C487.026 1091.62 492.249 1090.96 496.062 1094.3ZM828.569 1095.85C829.876 1097.07 830.819 1099.13 830.819 1100.77V1103.6H821.821C816.872 1103.6 812.823 1103.44 812.823 1103.24C812.823 1100.77 815.753 1096 818.202 1094.48C821.813 1092.25 825.194 1092.7 828.569 1095.85ZM990.534 1096.19C991.77 1097.57 992.783 1099.81 992.783 1101.15C992.783 1103.56 992.662 1103.6 983.785 1103.6C978.169 1103.6 974.787 1103.2 974.787 1102.55C974.787 1100.21 977.976 1095.56 980.549 1094.14C984.02 1092.23 987.659 1092.97 990.534 1096.19ZM1187.49 1096.19C1188.73 1097.57 1189.74 1099.81 1189.74 1101.15C1189.74 1103.56 1189.62 1103.6 1180.74 1103.6C1175.13 1103.6 1171.74 1103.2 1171.74 1102.55C1171.74 1100.21 1174.93 1095.56 1177.51 1094.14C1180.98 1092.23 1184.62 1092.97 1187.49 1096.19ZM209.427 1099.75C215.457 1106.91 215.394 1120.88 209.305 1126.97C205.621 1130.65 200.746 1130.53 196.88 1126.67C194.008 1123.8 193.958 1123.56 193.958 1112.86C193.958 1102.27 194.035 1101.9 196.707 1099.38C201.397 1094.96 205.502 1095.08 209.427 1099.75ZM507.139 1133.76C512.264 1136.4 506.309 1143.95 498.136 1145.18C489.548 1146.47 478.895 1142.96 478.895 1138.84C478.895 1138.05 479.674 1136.08 480.627 1134.47L482.358 1131.54L493.874 1132.2C500.208 1132.56 506.177 1133.26 507.139 1133.76Z" fill="white"/>
</svg>
